HIERARCHY
ROOT SpineBase
{
  OFFSET 0.000000 0.000000 0.000000
  CHANNELS 6 Xposition Yposition Zposition Zrotation Xrotation Yrotation
  JOINT SpineMid
  {
    OFFSET -0.000000 27.261393 0.000000
    CHANNELS 3 Zrotation Xrotation Yrotation
    JOINT SpineShoulder
    {
      OFFSET 0.107400 20.263503 -0.584507
      CHANNELS 3 Zrotation Xrotation Yrotation
      JOINT Neck
      {
        OFFSET -0.002214 6.728153 -0.485570
        CHANNELS 3 Zrotation Xrotation Yrotation
        JOINT Head
        {
          OFFSET 2.574345 12.149299 0.604344
          CHANNELS 3 Zrotation Xrotation Yrotation
          End Site
          {
            OFFSET 0 0 0
          }
        }
      }
      JOINT ShoulderLeft
      {
        OFFSET -10.678322 -2.825812 -7.430882
        CHANNELS 3 Zrotation Xrotation Yrotation
        JOINT ElbowLeft
        {
          OFFSET -4.344519 -21.679989 -3.274899
          CHANNELS 3 Zrotation Xrotation Yrotation
          JOINT WristLeft
          {
            OFFSET 2.232025 -19.644248 -4.830193
            CHANNELS 3 Zrotation Xrotation Yrotation
            JOINT HandLeft
            {
              OFFSET 1.313437 -6.863494 -0.370707
              CHANNELS 3 Zrotation Xrotation Yrotation
              JOINT HandTipLeft
              {
                OFFSET 0.994087 -6.795599 -0.615549
                CHANNELS 3 Zrotation Xrotation Yrotation
                End Site
                {
                  OFFSET 0 0 0
                }
              }
              JOINT ThumbLeft
              {
                OFFSET 2.823939 1.226153 0.440977
                CHANNELS 3 Zrotation Xrotation Yrotation
                End Site
                {
                  OFFSET 0 0 0
                }
              }
            }
          }
        }
      }
      JOINT ShoulderRight
      {
        OFFSET 12.788747 -3.290905 4.544627
        CHANNELS 3 Zrotation Xrotation Yrotation
        JOINT ElbowRight
        {
          OFFSET 1.149166 -24.755017 -3.571846
          CHANNELS 3 Zrotation Xrotation Yrotation
          JOINT WristRight
          {
            OFFSET 1.496111 -18.263919 -5.260146
            CHANNELS 3 Zrotation Xrotation Yrotation
            JOINT HandRight
            {
              OFFSET -1.580600 -6.385081 -0.860840
              CHANNELS 3 Zrotation Xrotation Yrotation
              JOINT HandTipRight
              {
                OFFSET -0.254525 -6.303014 -1.292466
                CHANNELS 3 Zrotation Xrotation Yrotation
                End Site
                {
                  OFFSET 0 0 0
                }
              }
              JOINT ThumbRight
              {
                OFFSET -1.724934 -0.946395 -0.236605
                CHANNELS 3 Zrotation Xrotation Yrotation
                End Site
                {
                  OFFSET 0 0 0
                }
              }
            }
          }
        }
      }
    }
  }
  JOINT HipLeft
  {
    OFFSET -5.418696 1.156704 -5.588393
    CHANNELS 3 Zrotation Xrotation Yrotation
    JOINT KneeLeft
    {
      OFFSET -6.630093 -29.276344 0.503328
      CHANNELS 3 Zrotation Xrotation Yrotation
      JOINT AnkleLeft
      {
        OFFSET -2.406962 -33.749114 9.255447
        CHANNELS 3 Zrotation Xrotation Yrotation
        JOINT FootLeft
        {
          OFFSET 3.870030 -6.368004 -0.678946
          CHANNELS 3 Zrotation Xrotation Yrotation
          End Site
          {
            OFFSET 0 0 0
          }
        }
      }
    }
  }
  JOINT HipRight
  {
    OFFSET 5.227991 0.316964 -0.441182
    CHANNELS 3 Zrotation Xrotation Yrotation
    JOINT KneeRight
    {
      OFFSET -3.420850 -29.397007 2.516861
      CHANNELS 3 Zrotation Xrotation Yrotation
      JOINT AnkleRight
      {
        OFFSET -6.652641 -32.932748 6.480347
        CHANNELS 3 Zrotation Xrotation Yrotation
        JOINT FootRight
        {
          OFFSET 3.836882 -3.362463 -9.987579
          CHANNELS 3 Zrotation Xrotation Yrotation
          End Site
          {
            OFFSET 0 0 0
          }
        }
      }
    }
  }
}
MOTION
Frames: 9
Frame Time: 0.033333
15.207881 70.610154 362.259961 0.542225 0.578554 -22.018130 0.448932 0.458265 22.043535 -0.090841 0.369250 0.043257 0.229901 2.349374 -0.916071 0.000000 0.000000 0.000000 -4.524237 -2.080946 0.513770 0.926596 0.139450 -0.156654 4.447033 -2.016041 -1.161900 -7.968362 4.440850 1.858712 0.000000 0.000000 0.000000 0.000000 0.000000 0.000000 97.528305 1.228657 -18.026293 34.372262 68.096224 -109.599751 -35.712889 31.517334 -101.067804 -29.493858 7.611130 32.035692 0.000000 0.000000 0.000000 0.000000 0.000000 0.000000 -0.396337 0.401308 21.769680 -0.320540 -1.100547 0.240462 -0.143355 31.685669 19.072656 0.000000 0.000000 0.000000 -0.285809 -0.739622 22.013547 -0.000000 0.000000 0.000000 -0.283814 0.957437 1.896065 0.000000 0.000000 0.000000
15.216777 70.673317 362.248645 0.481065 0.816586 -22.139146 0.296000 0.568505 22.157432 -0.204820 0.447774 0.029146 -0.613670 2.096053 -0.873964 0.000000 0.000000 0.000000 -4.689880 -1.879993 0.441647 1.197769 -0.831593 -0.098747 4.396927 0.863934 -0.717624 -7.285546 2.244086 1.056903 0.000000 0.000000 0.000000 0.000000 0.000000 0.000000 99.635383 2.347754 -19.176709 43.829528 82.112852 -132.997229 -40.604101 12.160801 -82.806693 -25.714098 2.715994 17.439803 0.000000 0.000000 0.000000 0.000000 0.000000 0.000000 -0.251416 0.239913 21.882786 -0.333601 -1.135029 0.247808 0.006134 21.654520 12.994673 0.000000 0.000000 0.000000 0.405849 -0.317234 22.160669 -0.737568 -0.369528 -0.022503 0.353763 1.990082 1.150701 0.000000 0.000000 0.000000
15.206116 70.707529 362.234335 0.360502 1.026199 -22.337541 0.148408 0.633670 22.348275 -0.317049 0.435636 0.012131 -1.191807 1.845247 -0.811730 0.000000 0.000000 0.000000 -4.750916 -1.745074 0.421811 1.886848 -1.661139 -0.193665 2.950605 3.260966 -0.156632 -6.403808 0.885658 0.547975 0.000000 0.000000 0.000000 0.000000 0.000000 0.000000 101.702859 3.031214 -20.070248 167.135112 89.338104 95.819348 -40.685580 2.693555 -75.008783 -20.026118 -0.274209 14.341285 0.000000 0.000000 0.000000 0.000000 0.000000 0.000000 -0.010492 0.092902 22.087903 -0.381308 -1.117767 0.242645 -1.414681 5.437050 3.532262 0.000000 0.000000 0.000000 1.049880 -0.424736 22.420972 -1.170425 -0.232732 -0.075403 1.364517 3.258762 -0.339230 0.000000 0.000000 0.000000
15.216962 70.735415 362.247617 0.281631 1.141681 -22.552784 0.036737 0.596206 22.557890 -0.385345 0.309188 -0.000755 -1.608422 2.085190 -0.801158 0.000000 0.000000 0.000000 -4.777535 -1.411473 0.426753 2.839138 -2.377565 -0.369941 0.387284 4.892939 0.493917 -4.662954 -0.791792 0.042895 0.000000 0.000000 0.000000 0.000000 0.000000 0.000000 102.949021 3.151089 -20.518309 -125.853613 86.658690 26.518241 -38.308337 1.925643 -70.900650 -18.129926 -2.204319 12.580533 0.000000 0.000000 0.000000 0.000000 0.000000 0.000000 0.111631 0.002814 22.308065 -0.381148 -1.103090 0.239378 -4.106552 -6.668915 -3.968399 0.000000 0.000000 0.000000 1.581765 -0.728177 22.716423 -1.462599 0.141288 -0.139674 0.034059 1.828695 1.894543 0.000000 0.000000 0.000000
15.237693 70.762151 362.274991 0.254269 1.152523 -22.724771 0.012211 0.430620 22.727353 -0.361222 0.073301 -0.003554 -2.040737 2.805770 -0.821388 0.000000 0.000000 0.000000 -4.745254 -1.083438 0.478059 3.385318 -2.260969 -0.484275 -0.580163 4.322943 0.563178 -4.951444 0.963522 0.481070 0.000000 0.000000 0.000000 0.000000 0.000000 0.000000 103.114684 2.181309 -19.927750 -29.555147 85.664356 -64.721934 -41.251550 12.879855 -76.072515 -12.673073 -3.940943 14.822588 0.000000 0.000000 0.000000 0.000000 0.000000 0.000000 0.123504 -0.034318 22.486294 -0.350501 -1.074616 0.233858 -4.109132 -6.662805 -3.964248 0.000000 0.000000 0.000000 1.587369 -0.593071 22.874045 -1.489119 0.011285 -0.128473 -2.545495 -1.320721 6.400839 0.000000 0.000000 0.000000
15.255506 70.784794 362.320598 0.249377 1.071291 -22.846531 0.016454 0.260534 22.848373 -0.315680 -0.131009 -0.003174 -1.925508 3.224056 -0.805571 0.000000 0.000000 0.000000 -4.611213 -0.692373 0.509575 3.744609 -2.346215 -0.600967 -1.790295 4.150797 0.721060 -3.906764 3.172753 0.909458 0.000000 0.000000 0.000000 0.000000 0.000000 0.000000 102.094061 0.559944 -18.371340 13.281542 73.301642 -95.287482 -42.329158 28.636973 -90.102052 -15.724640 -6.137902 12.624907 0.000000 0.000000 0.000000 0.000000 0.000000 0.000000 0.066766 0.073062 22.598536 -0.334501 -1.114146 0.243119 -1.512836 5.553882 3.621725 0.000000 0.000000 0.000000 1.551233 -0.722102 23.010271 -1.397855 0.200113 -0.140352 -4.720991 -4.748752 10.112309 0.000000 0.000000 0.000000
15.286299 70.801296 362.381989 0.309909 0.925603 -22.871493 0.089223 0.095706 22.876931 -0.429455 -0.979050 -0.010865 -1.480609 4.441410 -0.806722 0.000000 0.000000 0.000000 -4.595110 0.090847 0.674422 4.538763 -2.043288 -0.874605 -2.779979 3.094776 0.714443 -2.265392 5.006319 1.185522 0.000000 0.000000 0.000000 0.000000 0.000000 0.000000 100.289127 -0.941893 -17.615016 19.726367 53.873424 -83.123627 -29.592805 49.116101 -121.145031 -15.938431 -3.254715 23.010976 0.000000 0.000000 0.000000 0.000000 0.000000 0.000000 -0.079699 0.184213 22.618582 -0.303156 -1.127642 0.246995 -0.166538 16.124825 9.743655 0.000000 0.000000 0.000000 1.300258 -0.986169 23.043824 -1.123135 0.491477 -0.148422 -8.954693 -13.831232 17.495024 0.000000 0.000000 0.000000
15.331442 70.821474 362.450902 0.399591 0.748693 -22.808422 0.208067 -0.073712 22.820586 -0.562959 -0.599957 -0.016004 -0.697020 4.359493 -0.860233 0.000000 0.000000 0.000000 -4.013864 -0.618495 0.704456 4.349039 -1.301142 -1.043450 -3.533194 2.450717 0.713633 0.319240 5.027557 0.922270 0.000000 0.000000 0.000000 0.000000 0.000000 0.000000 98.770696 -1.733991 -16.370509 21.150148 32.408002 -62.385932 5.249710 49.792471 -162.608192 -22.165795 23.579754 153.304450 0.000000 0.000000 0.000000 0.000000 0.000000 0.000000 -0.289595 0.285227 22.553691 -0.238266 -1.124929 0.248172 -0.362732 28.335798 17.149549 0.000000 0.000000 0.000000 0.851621 -1.359092 22.976507 0.321405 0.943612 0.006399 -12.324620 -20.530546 22.189408 0.000000 0.000000 0.000000
15.379108 70.820363 362.523616 0.505047 0.549499 -22.539235 -0.255863 -0.701106 22.535248 0.718146 -0.387482 0.054117 -0.438571 4.971096 -1.046173 0.000000 0.000000 0.000000 -3.948371 -1.006419 0.698453 3.823423 -0.471877 -1.163359 -3.694213 1.100045 0.478043 2.350692 5.792873 0.799866 0.000000 0.000000 0.000000 0.000000 0.000000 0.000000 96.951323 -2.269818 -16.021231 21.404837 14.090148 -41.406433 42.052072 12.398062 -36.647516 6.413322 3.538979 104.069912 0.000000 0.000000 0.000000 0.000000 0.000000 0.000000 -0.512102 0.386202 22.287826 -0.175302 -1.103254 0.245030 -3.870767 42.790540 28.034705 0.000000 0.000000 0.000000 0.448651 -1.396006 22.687105 0.728862 0.965474 0.053624 -13.165887 -22.840225 23.782412 0.000000 0.000000 0.000000
